<?xml version="1.0" encoding="UTF-8"?>
<svg version="1.1" xmlns="http://www.w3.org/2000/svg" width="1001" height="259">
<path d="M0 0 C1.2656076 -0.00902847 2.53121521 -0.01805695 3.83517456 -0.02735901 C6.50305447 -0.04183096 9.17050693 -0.05153586 11.83837891 -0.05444336 C15.2493988 -0.05984667 18.65924543 -0.09763673 22.06993294 -0.14318752 C25.3382186 -0.18012418 28.60653364 -0.18147 31.875 -0.1875 C33.09591339 -0.20703232 34.31682678 -0.22656464 35.57473755 -0.24668884 C44.98274054 -0.19645367 44.98274054 -0.19645367 48.11279297 2.67944336 C49.8046875 5.37109375 49.8046875 5.37109375 49.8046875 8.99609375 C48.8164842 12.3312799 48.49227595 13.36555178 45.8046875 15.37109375 C43.45443726 15.74963379 43.45443726 15.74963379 40.64990234 15.75585938 C39.59805756 15.76597046 38.54621277 15.77608154 37.4624939 15.78649902 C36.32502716 15.78347778 35.18756042 15.78045654 34.015625 15.77734375 C32.25613022 15.79359802 32.25613022 15.79359802 30.46109009 15.81018066 C26.70056699 15.84452249 22.94034692 15.86004288 19.1796875 15.87109375 C14.24971007 15.88570391 9.32040524 15.91952406 4.390625 15.96484375 C3.26530365 15.96182251 2.1399823 15.95880127 0.9805603 15.95568848 C-9.87347472 16.01008705 -9.87347472 16.01008705 -19.07974243 21.12731934 C-20.55264751 22.82247137 -21.90985075 24.53111909 -23.1953125 26.37109375 C-22.16960144 26.37989311 -22.16960144 26.37989311 -21.12316895 26.38887024 C-13.98483914 26.45296768 -6.84695335 26.53742987 0.29101562 26.63354492 C2.95251357 26.66835162 5.61371893 26.69478136 8.27539062 26.7175293 C12.10837247 26.75118964 15.94072266 26.80351389 19.7734375 26.859375 C20.95707886 26.86576492 22.14072021 26.87215485 23.36022949 26.8787384 C30.70112655 27.0084121 37.13920506 27.37612639 43.046875 32.203125 C47.82313334 37.99633787 50.2812521 42.52570817 50.05859375 50.2890625 C49.35241746 56.07970804 46.99182868 61.29711855 42.8046875 65.37109375 C35.4950588 70.14714582 28.60823231 69.94262407 20.0859375 69.91015625 C18.65920517 69.92008101 17.23248563 69.93202897 15.80578613 69.94589233 C12.06718457 69.97810687 8.32887558 69.9886324 4.59014893 69.99273682 C-1.39203659 70.00152358 -7.37398348 70.03728714 -13.35597229 70.08491135 C-15.43202912 70.0973886 -17.50777601 70.09674811 -19.5838623 70.09463501 C-28.8523574 70.14522531 -36.70352635 70.27312828 -44.1953125 76.37109375 C-45.23439827 78.01367664 -46.24095465 79.67787821 -47.1953125 81.37109375 C-46.20861069 81.36443192 -45.22190887 81.35777008 -44.20530701 81.35090637 C-34.89220369 81.29000775 -25.57914094 81.24507913 -16.26588345 81.21565723 C-11.47819639 81.20002247 -6.69067049 81.17882423 -1.90307617 81.14477539 C2.71996068 81.1121038 7.34284283 81.09422427 11.96598625 81.08646202 C13.72698335 81.0809325 15.48797229 81.07013468 17.24890327 81.05390358 C19.72153945 81.03202539 22.19354188 81.02913112 24.66625977 81.03051758 C25.75059799 81.01433884 25.75059799 81.01433884 26.85684204 80.99783325 C33.69760286 81.03915298 39.28444673 83.18596593 44.44921875 87.796875 C47.99416448 91.91391572 49.99685567 97.01496039 50.2421875 102.43359375 C49.50603363 109.05897854 47.60072569 114.57505556 42.8046875 119.37109375 C36.00700173 124.27869128 29.13009774 124.51831835 20.98535156 124.54467773 C20.11962021 124.55136475 19.25388885 124.55805176 18.36192322 124.56494141 C16.49096299 124.57894022 14.61998621 124.59085049 12.74900055 124.60088921 C9.79067369 124.61735244 6.83247114 124.64058798 3.87420654 124.66578674 C-4.53350616 124.73644782 -12.94126651 124.79687855 -21.34912109 124.84790039 C-26.49783388 124.87961732 -31.64639786 124.92086071 -36.79499054 124.96809578 C-38.75823559 124.98414423 -40.7215148 124.99645259 -42.68480682 125.00500298 C-45.42121102 125.01710154 -48.15726177 125.04122355 -50.89355469 125.06811523 C-51.70915359 125.06870438 -52.5247525 125.06929352 -53.36506653 125.06990051 C-57.74815431 124.95596203 -57.74815431 124.95596203 -61.1953125 127.37109375 C-61.03088973 130.44101056 -61.03088973 130.44101056 -60.1953125 133.37109375 C-56.93535377 135.00107312 -53.34007782 134.51522268 -49.75756836 134.51293945 C-48.88415802 134.51641388 -48.01074768 134.51988831 -47.11087036 134.52346802 C-45.20929033 134.53083214 -43.30770167 134.53617402 -41.40611076 134.53975868 C-38.39156496 134.54691916 -35.37718241 134.56258477 -32.36268616 134.58110046 C-23.78974716 134.63357433 -15.21689478 134.6815034 -6.64379883 134.69702148 C-1.40230779 134.70713176 3.83877667 134.73653912 9.08010674 134.77834129 C11.07384597 134.79061857 13.06764275 134.79577856 15.06141853 134.79354286 C17.86177657 134.79117655 20.66098022 134.81345885 23.46118164 134.84106445 C24.27659927 134.83446304 25.09201691 134.82786163 25.93214417 134.82106018 C32.54566204 134.92743049 38.69107441 136.55448791 43.6934824 141.07971668 C48.42571478 146.17150821 50.26009372 151.26343006 50.05859375 158.2890625 C49.34747009 164.12027652 46.96005798 169.21572327 42.8046875 173.37109375 C36.42565072 177.87752546 30.69821292 178.52313675 23.0769043 178.48461914 C21.93464134 178.48483818 21.93464134 178.48483818 20.76930237 178.48506165 C18.26414088 178.48436762 15.75905468 178.47659915 13.25390625 178.46875 C11.51227357 178.46688401 9.77064036 178.46546096 8.02900696 178.46446228 C3.45383241 178.46065137 -1.1213102 178.45083328 -5.69647217 178.4397583 C-10.36860726 178.4295135 -15.04074753 178.42495809 -19.71289062 178.41992188 C-28.87371192 178.40920971 -38.03450955 178.39215043 -47.1953125 178.37109375 C-46.33397232 179.48594895 -45.45537576 180.58747694 -44.5703125 181.68359375 C-44.08304688 182.29847656 -43.59578125 182.91335937 -43.09375 183.546875 C-38.6893362 187.77909978 -34.38100828 188.74490489 -28.41479492 188.73999023 C-27.44030144 188.74563995 -27.44030144 188.74563995 -26.44612122 188.75140381 C-25.04499435 188.757805 -23.64382401 188.75753578 -22.24269676 188.7512188 C-20.01732595 188.74204965 -17.79278731 188.75239852 -15.56745911 188.76783752 C-9.24412224 188.80776985 -2.92085419 188.80914712 3.40258789 188.80688477 C7.28059834 188.80683339 11.15815987 188.82613762 15.03604698 188.85621834 C17.2147522 188.86695603 19.39256777 188.85496551 21.57124329 188.84239197 C29.85557899 188.86314248 37.31037049 189.25244025 43.66926575 195.07981873 C47.96869903 199.63442437 49.55640528 203.88827152 50.1796875 210.12109375 C49.97361437 216.09721461 48.16333253 221.88453955 44.00390625 226.26953125 C36.09170165 232.56856793 28.07264574 232.68665741 18.30859375 232.78515625 C16.52557106 232.81420547 16.52557106 232.81420547 14.70652771 232.84384155 C10.9268196 232.90340464 7.14708066 232.94993005 3.3671875 232.99609375 C0.79751309 233.03429489 -1.7721488 233.07334786 -4.34179688 233.11328125 C-10.62619064 233.20908712 -16.91066037 233.29420234 -23.1953125 233.37109375 C-19.85024998 237.93254265 -16.90582915 241.1100675 -11.1953125 242.37109375 C-6.93784455 242.75751682 -2.70984799 242.74088376 1.5625 242.70703125 C4.06901304 242.71953663 6.57552348 242.73257343 9.08203125 242.74609375 C13.01685713 242.75003301 16.95142851 242.74601326 20.88623047 242.73144531 C24.69537409 242.72289291 28.50345042 242.74451994 32.3125 242.76953125 C33.48966583 242.75618744 34.66683167 242.74284363 35.87966919 242.72909546 C44.96026528 242.81145178 44.96026528 242.81145178 48.05761719 245.77539062 C49.84478516 248.4306687 50.42908952 249.39005677 49.9296875 252.49609375 C49.84976563 253.15867188 49.76984375 253.82125 49.6875 254.50390625 C48.37132766 257.28766898 46.51629775 257.99971235 43.8046875 259.37109375 C41.21392822 259.74531555 41.21392822 259.74531555 38.42285156 259.7434082 C37.37115784 259.74963699 36.31946411 259.75586578 35.23590088 259.76228333 C34.10875671 259.75307358 32.98161255 259.74386383 31.8203125 259.734375 C30.65014587 259.7348735 29.47997925 259.73537201 28.27435303 259.73588562 C25.79974673 259.73354689 23.32513797 259.72383027 20.85058594 259.70727539 C17.08246303 259.68376703 13.31505223 259.68670617 9.546875 259.69335938 C7.13801665 259.68777933 4.72916127 259.6806674 2.3203125 259.671875 C1.20126526 259.67278641 0.08221802 259.67369781 -1.07073975 259.67463684 C-13.06178951 259.56724364 -22.89525845 257.48927106 -31.9453125 249.18359375 C-37.81268108 242.97509909 -41.29742704 234.92452982 -41.5703125 226.43359375 C-41.61929688 225.39332031 -41.66828125 224.35304687 -41.71875 223.28125 C-41.1953125 220.37109375 -41.1953125 220.37109375 -39.08049011 218.22134399 C-35.59658966 215.98713573 -33.62316801 215.86692874 -29.5090332 215.85693359 C-28.85802643 215.8498085 -28.20701965 215.84268341 -27.5362854 215.83534241 C-25.39757504 215.8161372 -23.25986105 215.82432365 -21.12109375 215.83203125 C-19.63085997 215.8221222 -18.14063844 215.81018015 -16.6504364 215.79629517 C-12.73687509 215.76397839 -8.82359372 215.75354408 -4.90991211 215.74945068 C1.36467543 215.74068195 7.63903384 215.70529549 13.91343117 215.65727615 C16.10608552 215.64466253 18.29845126 215.6454509 20.49113464 215.64755249 C21.82962266 215.64097489 23.16810866 215.63396917 24.5065918 215.62646484 C26.26268013 215.62457657 26.26268013 215.62457657 28.054245 215.62265015 C30.948637 215.6536538 30.948637 215.6536538 32.8046875 213.37109375 C32.97146032 209.78765399 32.97146032 209.78765399 32.8046875 206.37109375 C32.00448181 206.36522751 31.20427612 206.35936127 30.37982178 206.35331726 C22.78982675 206.29509568 15.20014903 206.22285418 7.6104393 206.13537884 C3.70971546 206.09090164 -0.19090937 206.05159775 -4.09179688 206.0246582 C-7.86566477 205.99839646 -11.63914686 205.9578386 -15.41277313 205.90790749 C-16.84300641 205.89139162 -18.27330617 205.87978326 -19.70362091 205.87347984 C-34.26494205 205.80289819 -46.28720635 204.10641336 -57.0078125 193.59375 C-62.55023132 187.03983975 -65.76975075 177.83464613 -65.1953125 169.24609375 C-64.88639553 166.6878751 -64.47316786 165.66552174 -62.69692993 163.78334045 C-59.04904481 161.72398731 -55.49895428 161.94805338 -51.41943359 161.97045898 C-50.53448715 161.96347992 -49.64954071 161.95650085 -48.73777771 161.9493103 C-45.81467173 161.9293249 -42.89191823 161.92983374 -39.96875 161.9296875 C-37.93900598 161.91791943 -35.90927062 161.90455662 -33.87954712 161.8896637 C-28.53740094 161.8534568 -23.19533164 161.83326742 -17.85308838 161.81811523 C-9.29457461 161.79329181 -0.73623066 161.75378916 7.82212448 161.69621468 C10.81689121 161.67983441 13.81149884 161.67610356 16.80630493 161.67320251 C18.63340535 161.66343076 20.46050323 161.65316823 22.28759766 161.64233398 C23.12504013 161.64488693 23.9624826 161.64743988 24.82530212 161.65007019 C29.28695401 161.79781253 29.28695401 161.79781253 32.8046875 159.37109375 C32.97146032 155.78765399 32.97146032 155.78765399 32.8046875 152.37109375 C31.68683868 152.36522751 30.56898987 152.35936127 29.41726685 152.35331726 C18.85405063 152.29596658 8.29103783 152.22314074 -2.27197075 152.13537884 C-7.70180638 152.09075702 -13.1315684 152.05148291 -18.56152344 152.0246582 C-23.80716193 151.99854349 -29.05251588 151.95808352 -34.29797745 151.90790749 C-36.29367646 151.8912939 -38.28942463 151.87974547 -40.28518295 151.87347984 C-43.09260245 151.8637786 -45.89930296 151.83564821 -48.70654297 151.8034668 C-49.52150742 151.80490189 -50.33647186 151.80633698 -51.1761322 151.80781555 C-58.1488706 151.69565064 -65.33392014 150.66353001 -70.88671875 146.21484375 C-71.50417969 145.44140625 -72.12164062 144.66796875 -72.7578125 143.87109375 C-73.39847656 143.09765625 -74.03914063 142.32421875 -74.69921875 141.52734375 C-78.41651945 136.16977199 -77.69851381 129.61670995 -77.1953125 123.37109375 C-75.65344553 116.91192131 -71.8085536 113.89901868 -66.31640625 110.5 C-61.74937402 108.06929592 -57.48091528 108.21307178 -52.44116211 108.19750977 C-51.09933113 108.18747925 -51.09933113 108.18747925 -49.73039246 108.17724609 C-47.78735148 108.16319428 -45.84429399 108.15130064 -43.90122795 108.14129829 C-40.82972555 108.1249043 -37.75834634 108.10166912 -34.68690491 108.07640076 C-25.95401117 108.00556563 -17.22106829 107.94538096 -8.48803711 107.89428711 C-3.14827041 107.86256662 2.19135293 107.82131392 7.53100395 107.77409172 C9.56960928 107.75803547 11.60824762 107.74573075 13.64689827 107.73718452 C16.49139167 107.72508448 19.33554524 107.70095922 22.17993164 107.67407227 C23.0282959 107.67348312 23.87666016 107.67289398 24.75073242 107.67228699 C29.2516339 107.80787834 29.2516339 107.80787834 32.8046875 105.37109375 C32.97146032 101.78765399 32.97146032 101.78765399 32.8046875 98.37109375 C31.67573563 98.3630069 30.54678375 98.35492004 29.38362122 98.34658813 C18.74530545 98.26910993 8.10711732 98.18136626 -2.53103161 98.08356667 C-8.00023549 98.03361677 -13.46942018 97.98728647 -18.9387207 97.94921875 C-24.21670129 97.91234965 -29.49452081 97.865985 -34.77236366 97.81303024 C-36.78615812 97.79449499 -38.79998709 97.77938382 -40.81383324 97.76774979 C-43.63411332 97.75087265 -46.45402521 97.72183373 -49.27416992 97.68994141 C-50.10711075 97.68778122 -50.94005157 97.68562103 -51.79823303 97.68339539 C-56.01191837 97.62250779 -59.39266705 97.41011996 -63.1953125 95.37109375 C-65.8297926 91.98390505 -65.52961621 88.51645972 -65.1953125 84.37109375 C-63.31228638 74.8135494 -58.77231052 66.77019217 -51.125 60.65234375 C-44.35132406 56.15484232 -37.67926474 54.26271202 -29.62255859 54.19750977 C-28.97169785 54.19082275 -28.3208371 54.18413574 -27.6502533 54.17724609 C-26.24198624 54.16323529 -24.833697 54.15132873 -23.42539597 54.14129829 C-21.19811598 54.1248476 -18.97100197 54.10161175 -16.74380493 54.07640076 C-10.41327195 54.00571211 -4.08267443 53.94535297 2.24804688 53.89428711 C6.12364746 53.86255094 9.99905113 53.82129983 13.87449265 53.77409172 C15.35207978 53.75805139 16.82971217 53.74573922 18.3073616 53.73718452 C20.36868655 53.72507139 22.42954498 53.70094304 24.49072266 53.67407227 C25.66446442 53.6637648 26.83820618 53.65345734 28.04751587 53.64283752 C30.94730882 53.65136684 30.94730882 53.65136684 32.8046875 51.37109375 C32.48142197 47.77430309 32.48142197 47.77430309 31.8046875 44.37109375 C28.44960659 43.25273345 25.89761322 43.23293599 22.36132812 43.21337891 C21.38766548 43.20575783 21.38766548 43.20575783 20.39433289 43.19798279 C18.98659101 43.18729344 17.5788323 43.17866764 16.17106628 43.17186356 C13.9435846 43.16006433 11.71629591 43.14061071 9.4888916 43.1187439 C3.1565592 43.05714995 -3.17575127 43.00302445 -9.50830078 42.96972656 C-13.38282064 42.9488053 -17.25698493 42.91352782 -21.13130188 42.86896896 C-22.60805585 42.85479331 -24.08487268 42.84608299 -25.56169128 42.84291458 C-27.62549189 42.83801663 -29.68834454 42.81489174 -31.75195312 42.78759766 C-32.92649048 42.7795108 -34.10102783 42.77142395 -35.31115723 42.76309204 C-38.1953125 42.37109375 -38.1953125 42.37109375 -40.07092285 41.00546265 C-42.70720128 37.17347124 -41.66919653 31.7760612 -41.1953125 27.37109375 C-38.90204318 17.95230905 -33.39560066 10.08058313 -25.1953125 4.93359375 C-16.97260948 0.18660566 -9.30177194 0.04099274 0 0 Z " fill="#F9A51A" transform="translate(77.1953125,-0.37109375)"/>
<path d="M0 0 C1.25420746 -0.00241196 2.50841492 -0.00482391 3.80062866 -0.00730896 C6.45601088 -0.00632948 9.10914152 0.00448251 11.76416016 0.03198242 C14.46833641 0.05914581 17.17121038 0.06633354 19.87548828 0.05249023 C23.79237412 0.03358311 27.70813269 0.04323015 31.625 0.0625 C33.41932968 0.0550602 33.41932968 0.0550602 35.24990845 0.04747009 C46.84378483 0.20793067 56.94452511 3.15342118 65.2109375 11.62890625 C71.30142876 19.87590193 74.66626253 28.26949585 73.2109375 38.62890625 C72.09094238 40.75740051 72.09094238 40.75740051 70.2109375 42.62890625 C67.32678223 43.14115906 67.32678223 43.14115906 63.76757812 43.15893555 C63.1184697 43.16766693 62.46936127 43.17639832 61.80058289 43.18539429 C59.655837 43.20978313 57.51205449 43.20635875 55.3671875 43.203125 C53.87648881 43.21556866 52.3858048 43.22990248 50.8951416 43.24604797 C46.97044867 43.28411035 43.04600813 43.29926678 39.12115479 43.30883789 C32.83895381 43.32856472 26.55694571 43.38542777 20.27494812 43.43760109 C18.07964385 43.45295051 15.88443539 43.46013952 13.68908691 43.46574402 C12.34415643 43.4727607 10.99922639 43.47986166 9.65429688 43.48706055 C8.47975952 43.49054001 7.30522217 43.49401947 6.09509277 43.49760437 C3.14093385 43.50070957 3.14093385 43.50070957 0.2109375 44.62890625 C-0.46579697 48.03211559 -0.46579697 48.03211559 -0.7890625 51.62890625 C1.96832993 54.38629868 3.55279011 53.8800605 7.41381836 53.88427734 C8.71955307 53.89123627 10.02528778 53.89819519 11.37059021 53.90536499 C12.07141661 53.90468395 12.772243 53.90400291 13.49430656 53.90330124 C15.69459689 53.90233549 17.8943992 53.9152882 20.09461975 53.93228149 C26.35153274 53.97850588 32.60840077 54.00310812 38.86547852 54.00976562 C42.69353271 54.0148206 46.52108656 54.03928202 50.34897041 54.07509232 C51.79958636 54.08481098 53.25027191 54.08726616 54.70091057 54.08192062 C67.07837636 54.03850114 77.95371353 55.7980018 87.2109375 64.62890625 C94.24345164 72.47655271 97.73970718 80.97797404 97.2109375 91.62890625 C95.16968369 95.34690426 94.20640586 96.29708346 90.2109375 97.62890625 C87.30582202 97.74937424 84.42293402 97.81431986 81.5168457 97.83422852 C80.1848262 97.84907791 80.1848262 97.84907791 78.82589722 97.86422729 C75.88786494 97.89583914 72.94981649 97.92059854 70.01171875 97.9453125 C67.97575966 97.96588229 65.93980483 97.98687877 63.90385437 98.00828552 C58.54287165 98.06350354 53.18185041 98.11291405 47.82080078 98.16113281 C42.35120206 98.21134977 36.88165935 98.26703483 31.41210938 98.32226562 C20.67843325 98.42984392 9.94470852 98.53128966 -0.7890625 98.62890625 C-0.95583532 102.04546649 -0.95583532 102.04546649 -0.7890625 105.62890625 C1.81973195 108.2377007 3.63466609 107.86731792 7.18713379 107.88566589 C8.02450073 107.87997086 8.86186768 107.87427582 9.72460938 107.8684082 C10.60616699 107.87042236 11.48772461 107.87243652 12.39599609 107.87451172 C14.31558417 107.87806381 16.23518392 107.87728206 18.1547699 107.87273598 C21.19906091 107.86715196 24.24296951 107.87628876 27.28723145 107.88993835 C35.9447589 107.92709 44.60216075 107.94564965 53.25976562 107.93432617 C58.55315674 107.92845189 63.84601499 107.94685583 69.13929749 107.98021507 C71.15176402 107.98813975 73.16428908 107.98693214 75.17674255 107.97619057 C96.15071745 107.86913947 96.15071745 107.86913947 103.2109375 113.62890625 C108.89627597 119.71685295 109.57363662 125.35596564 109.484375 133.3984375 C108.91324797 140.14589546 105.25979536 143.96100249 100.3828125 148.3671875 C94.42882324 151.82606975 87.64590753 151.93015856 80.94921875 151.94775391 C79.61610405 151.96282234 79.61610405 151.96282234 78.25605774 151.97819519 C75.34519036 152.00886039 72.43441424 152.02601569 69.5234375 152.04296875 C67.49462101 152.06169382 65.4658122 152.08126822 63.43701172 152.10165405 C58.11721334 152.15283977 52.79738974 152.1925379 47.47747803 152.22979736 C42.0409122 152.26992224 36.60445002 152.32097579 31.16796875 152.37109375 C20.51569796 152.46769239 9.86336845 152.55214833 -0.7890625 152.62890625 C-0.95583532 156.04546649 -0.95583532 156.04546649 -0.7890625 159.62890625 C1.81718294 162.23515169 3.64015904 161.87609836 7.19032288 161.90788269 C8.02776535 161.90532974 8.86520782 161.90277679 9.72802734 161.90014648 C10.60946915 161.90537323 11.49091095 161.91059998 12.39906311 161.91598511 C14.31701242 161.92624275 16.23498971 161.93200857 18.15296555 161.9338665 C21.18720345 161.93751845 24.22111105 161.95421292 27.25527954 161.97462463 C35.8833401 162.03014908 44.51144993 162.06073294 53.13964844 162.08520508 C58.41346466 162.10106725 63.68704749 162.13127427 68.96074295 162.16996956 C70.97257639 162.18163378 72.98445156 162.18755003 74.99631882 162.18765068 C77.80948028 162.18784242 80.62199708 162.20608648 83.43505859 162.22827148 C84.26845261 162.22369431 85.10184662 162.21911713 85.960495 162.21440125 C89.3209914 162.25660044 91.75298149 162.37037477 94.71255493 164.04115295 C97.06690707 166.53592995 97.1496687 168.56343024 97.3671875 171.90234375 C96.81883181 181.47115052 93.01771403 189.9436793 86.2109375 196.62890625 C75.78658559 205.75021417 62.82187516 206.08236292 49.6015625 206.140625 C48.13896217 206.15751463 46.67637597 206.17567044 45.21380615 206.19502258 C41.40653913 206.24206484 37.59932939 206.27216758 33.79187012 206.29846191 C29.88977746 206.32850159 25.98788157 206.37494995 22.0859375 206.41992188 C14.46103615 206.50543246 6.83611963 206.57300667 -0.7890625 206.62890625 C-0.95583532 210.04546649 -0.95583532 210.04546649 -0.7890625 213.62890625 C1.98413617 216.40210492 3.62529404 215.88010126 7.5090332 215.88427734 C8.15478302 215.8878978 8.80053284 215.89151825 9.46585083 215.89524841 C10.86978555 215.90214764 12.27374711 215.90464686 13.67769814 215.90330124 C15.90154312 215.90233732 18.12490294 215.91526245 20.34867859 215.93228149 C26.6717855 215.97858921 32.99484468 216.003152 39.31811523 216.00976562 C43.18504623 216.01478574 47.05147356 216.03906372 50.91823387 216.07509232 C52.39055543 216.08488227 53.86294636 216.0872266 55.33529091 216.08192062 C57.39895862 216.07483459 59.46113165 216.09216136 61.5246582 216.11474609 C63.28432671 216.11902115 63.28432671 216.11902115 65.07954407 216.12338257 C68.85936261 216.73358624 70.53369873 217.93531855 73.2109375 220.62890625 C74.99020869 228.16594321 73.07776687 236.0689193 69.2109375 242.62890625 C63.34353803 250.98964037 55.58788665 257.1811261 45.37745667 259.18499756 C42.42402981 259.59903322 39.63128831 259.76818718 36.65209961 259.79003906 C35.58757065 259.79964661 34.52304169 259.80925415 33.42625427 259.81915283 C32.29172318 259.82340271 31.15719208 259.82765259 29.98828125 259.83203125 C28.22092369 259.84058136 28.22092369 259.84058136 26.41786194 259.8493042 C23.93247368 259.85873005 21.44707306 259.86527855 18.96166992 259.86914062 C15.15847183 259.87888055 11.35580657 259.90994136 7.55273438 259.94140625 C5.13541987 259.9479335 2.71810151 259.95318506 0.30078125 259.95703125 C-0.83577408 259.96937805 -1.97232941 259.98172485 -3.14332581 259.9944458 C-4.73539101 259.98994415 -4.73539101 259.98994415 -6.35961914 259.98535156 C-7.28972305 259.98899719 -8.21982697 259.99264282 -9.17811584 259.99639893 C-12.33285381 259.55236722 -14.21907435 258.4816642 -16.7890625 256.62890625 C-18.23337105 253.74028916 -18.16594756 251.83242924 -17.7890625 248.62890625 C-16.12938266 246.09514849 -15.36116026 245.05982978 -12.7890625 243.62890625 C-8.63889442 242.90737195 -4.53459838 243.0035049 -0.33203125 243.0625 C1.49336433 243.05404808 1.49336433 243.05404808 3.3556366 243.04542542 C7.24529446 243.0289613 11.13381894 243.04452339 15.0234375 243.06640625 C18.90224039 243.0830204 22.78028859 243.09205627 26.65910339 243.07667542 C29.07098129 243.06742596 31.48301872 243.0764565 33.89472961 243.10630798 C40.48125145 243.08495661 45.83069384 242.70193471 51.2109375 238.62890625 C53.6705149 236.06080797 53.6705149 236.06080797 55.2109375 233.62890625 C54.55440689 233.62304001 53.89787628 233.61717377 53.22145081 233.61112976 C46.35870093 233.54695865 39.49640973 233.46247836 32.6340332 233.36645508 C30.07647772 233.33329889 27.5188507 233.3052383 24.96118164 233.2824707 C21.27459364 233.2487541 17.58865571 233.1964277 13.90234375 233.140625 C12.76761124 233.13423508 11.63287872 233.12784515 10.46376038 233.1212616 C2.36676726 232.97292106 -4.17374089 231.87995555 -11.1015625 227.56640625 C-15.45781444 222.80492158 -17.89979683 217.05416735 -18.2890625 210.56640625 C-17.32677293 202.9883759 -14.64464816 197.71021091 -8.765625 192.8203125 C-4.01999997 189.95980729 0.54808579 189.38120837 6.00732422 189.3894043 C6.65859283 189.38739014 7.30986145 189.38537598 7.98086548 189.38330078 C9.38527885 189.37977455 10.78970816 189.38049843 12.1941185 189.38507652 C14.42330761 189.39070756 16.65198365 189.38144974 18.88113403 189.36787415 C25.21553923 189.33090462 31.54976705 189.31218681 37.88427734 189.32348633 C41.76886751 189.32936321 45.65273206 189.3109563 49.53717422 189.27759743 C51.00981746 189.2696856 52.48254068 189.27086283 53.95516586 189.28162193 C65.54566598 189.43358239 65.54566598 189.43358239 75.2109375 183.62890625 C76.23946845 182.31745596 77.24662073 180.98827042 78.2109375 179.62890625 C77.26626114 179.62304001 76.32158478 179.61717377 75.34828186 179.61112976 C66.41822179 179.55376048 57.48840192 179.48092534 48.55858707 179.39319134 C43.96835673 179.34858354 39.37821318 179.30930659 34.7878418 179.2824707 C30.35266206 179.25634163 25.91781805 179.21587221 21.48284721 179.16571999 C19.79613885 179.14911594 18.10937251 179.13756161 16.42259407 179.13129234 C-2.28320425 179.0547736 -2.28320425 179.0547736 -10.6015625 173.87890625 C-15.41268454 168.93032358 -17.52561413 163.73759696 -18.1015625 156.94140625 C-17.99406959 151.16903709 -15.9948389 146.13377098 -12.17578125 141.796875 C-6.01350425 136.18114141 0.12514976 135.33267359 8.19799805 135.35766602 C9.08163025 135.35243927 9.96526245 135.34721252 10.87567139 135.34182739 C12.78591329 135.33161907 14.69618276 135.32581254 16.60645103 135.323946 C19.62813136 135.32027548 22.64948553 135.30353258 25.6710968 135.28318787 C34.25894119 135.22782267 42.84683209 135.19701514 51.43481445 135.17260742 C56.69378655 135.1567617 61.95252366 135.12658234 67.21137428 135.08784294 C69.21566086 135.07617481 71.21998938 135.07026243 73.22430992 135.07016182 C76.02047794 135.06997045 78.81599352 135.05175696 81.61206055 135.02954102 C82.85811821 135.03640678 82.85811821 135.03640678 84.12934875 135.04341125 C88.33001367 135.0948619 88.33001367 135.0948619 91.96250629 133.26888943 C93.50970393 131.62118821 93.50970393 131.62118821 92.9609375 129.00390625 C92.43348105 126.69766555 92.43348105 126.69766555 91.2109375 125.62890625 C88.48436553 125.51434156 85.78209454 125.46405745 83.05444336 125.45532227 C82.1990799 125.44863525 81.34371643 125.44194824 80.46243286 125.43505859 C78.59740076 125.42097056 76.73235103 125.40908859 74.8672924 125.39911079 C71.91191673 125.38273568 68.95667009 125.35949563 66.00135803 125.33421326 C57.5957786 125.26336733 49.19014414 125.20349196 40.78442383 125.15209961 C35.647934 125.12021178 30.51158823 125.07890178 25.37521553 125.03190422 C23.41972017 125.01593124 21.46419155 125.00358807 19.50864983 124.99499702 C16.76335015 124.98277037 14.01838516 124.95858692 11.27319336 124.93188477 C10.47131088 124.93129562 9.66942841 124.93070648 8.84324646 124.93009949 C0.67835271 124.82547418 -6.7479999 123.48597709 -12.7890625 117.62890625 C-17.11922341 111.77662818 -18.68107676 105.85422176 -17.7890625 98.62890625 C-15.9502371 92.08224473 -12.66035903 87.16792886 -6.7890625 83.62890625 C-2.06327892 81.71790029 2.20121857 81.35202432 7.23583984 81.40185547 C8.01700165 81.40156342 8.79816345 81.40127136 9.60299683 81.40097046 C12.16773853 81.40235633 14.73218447 81.41788227 17.296875 81.43359375 C19.08191774 81.43732653 20.86696253 81.44017225 22.65200806 81.44216919 C27.33735873 81.44978482 32.0225843 81.46941546 36.70788574 81.49157715 C41.49404203 81.51208026 46.28021865 81.52118044 51.06640625 81.53125 C60.44797146 81.55266336 69.82944405 81.58677422 79.2109375 81.62890625 C75.79499743 76.37635874 73.82228952 74.24108736 68.2109375 71.62890625 C64.00105047 70.73794042 59.98615399 70.5004401 55.68994141 70.48706055 C54.41486725 70.48002609 53.13979309 70.47299164 51.82608032 70.46574402 C51.15197742 70.46392813 50.47787453 70.46211224 49.78334427 70.46024132 C47.65505681 70.45301484 45.52699188 70.43730395 43.39877319 70.41889954 C37.35116592 70.36671358 31.30368711 70.31847873 25.25585938 70.30297852 C21.54635814 70.29285204 17.83742907 70.26341818 14.12815475 70.22165871 C12.72252113 70.2094173 11.31680651 70.20421482 9.91112137 70.20645714 C1.95527793 70.21602767 -4.04016472 70.0577258 -10.7890625 65.62890625 C-12.84765625 63.41015625 -12.84765625 63.41015625 -14.2265625 61.12890625 C-14.69964844 60.37609375 -15.17273438 59.62328125 -15.66015625 58.84765625 C-18.31553546 53.62877946 -18.72029018 47.94430117 -17.140625 42.3203125 C-14.95014504 36.7692244 -11.94123123 32.7344625 -6.7890625 29.62890625 C-2.73059574 28.07807279 0.69656978 27.36892029 5.03271484 27.31005859 C6.15342377 27.2901889 7.27413269 27.27031921 8.42880249 27.24984741 C9.62276642 27.2382962 10.81673035 27.226745 12.046875 27.21484375 C13.28136383 27.1954776 14.51585266 27.17611145 15.78775024 27.15615845 C19.72040962 27.09650528 23.6530985 27.05003362 27.5859375 27.00390625 C30.25654203 26.96678082 32.92709114 26.926661 35.59765625 26.88671875 C42.13530864 26.79081529 48.67303452 26.70572596 55.2109375 26.62890625 C51.76072576 21.69036788 48.66154484 18.68356054 42.78192139 17.07739258 C37.74295508 16.19838765 32.72758465 16.20895693 27.625 16.22265625 C26.44626312 16.21182007 25.26752625 16.20098389 24.05307007 16.18981934 C19.04013866 16.14411541 14.02726289 16.13240701 9.01416016 16.11767578 C5.34258343 16.10203995 1.67144581 16.06907319 -2 16.03515625 C-3.7062001 16.03968811 -3.7062001 16.03968811 -5.4468689 16.04431152 C-7.02463608 16.0291449 -7.02463608 16.0291449 -8.63427734 16.01367188 C-9.55977386 16.01161743 -10.48527039 16.00956299 -11.43881226 16.00744629 C-14.25978996 15.55308914 -15.11255197 14.90902327 -16.7890625 12.62890625 C-17.7890625 9.25390625 -17.7890625 9.25390625 -17.7890625 5.62890625 C-13.52934489 -1.10188785 -7.33323258 -0.08046039 0 0 Z " fill="#01B0A4" transform="translate(157.7890625,-0.62890625)"/>
<path d="M0 0 C5.61 0 11.22 0 17 0 C21.95 21.12 26.9 42.24 32 64 C34.47804388 56.60183011 34.47804388 56.60183011 36.60986328 49.14477539 C36.88669952 48.0908107 37.16353577 47.03684601 37.44876099 45.95094299 C37.73637299 44.84435837 38.02398499 43.73777374 38.3203125 42.59765625 C38.62444061 41.43874374 38.92856873 40.27983124 39.24191284 39.08580017 C40.20575738 35.41209739 41.16574308 31.73740312 42.125 28.0625 C43.09167434 24.36267763 44.05922942 20.66309637 45.0295105 16.96421814 C45.63156044 14.66885885 46.23149707 12.37294403 46.82913208 10.07643127 C47.23492996 8.52858192 47.23492996 8.52858192 47.64892578 6.94946289 C47.88636505 6.03951065 48.12380432 5.12955841 48.36843872 4.19203186 C49 2 49 2 50 0 C55.61 0 61.22 0 67 0 C71.24017786 14.53735153 75.16138569 29.13243208 78.875 43.8125 C79.37732181 45.78848326 79.87992494 47.76439502 80.3828125 49.74023438 C81.59176479 54.49267715 82.79698106 59.24605198 84 64 C85.52242914 60.41804895 86.59780475 56.90899889 87.49633789 53.12402344 C87.77324966 51.96642517 88.05016144 50.8088269 88.33546448 49.6161499 C88.62823776 48.37641418 88.92101105 47.13667847 89.22265625 45.859375 C89.68936717 43.90737133 90.15608193 41.95536857 90.62303066 40.00342178 C91.43936614 36.58637022 92.25072739 33.16813787 93.0625 29.75 C94.03493451 25.6561693 95.00829604 21.5625729 95.98716736 17.47027588 C96.59595988 14.92367145 97.20147197 12.37628026 97.80348206 9.82806396 C98.07724167 8.68307434 98.35100128 7.53808472 98.63305664 6.35839844 C98.99373985 4.83880524 98.99373985 4.83880524 99.36170959 3.28851318 C100 1 100 1 101 0 C103.86267567 -0.07325168 106.700719 -0.09238205 109.5625 -0.0625 C110.36880859 -0.05798828 111.17511719 -0.05347656 112.00585938 -0.04882812 C114.00393756 -0.03700518 116.00197783 -0.01906914 118 0 C115.24994366 11.19952968 112.32125065 22.3401016 109.26953125 33.4609375 C108.82914492 35.06993074 108.38885449 36.67895024 107.94865417 38.28799438 C107.03635872 41.62102959 106.12277362 44.95370778 105.20825195 48.28613281 C104.03544008 52.56024565 102.86620022 56.83532668 101.69791126 61.11067772 C100.7943681 64.41552366 99.88886331 67.71982963 98.98276329 71.02397537 C98.55032575 72.6019007 98.11852959 74.18000194 97.68738747 75.75828171 C97.08893601 77.94797451 96.48782235 80.136919 95.88598633 82.32568359 C95.54497391 83.56982025 95.20396149 84.81395691 94.85261536 86.09579468 C94 89 94 89 93 91 C87.39 91 81.78 91 76 91 C71.49769932 77.08177666 68.03569361 62.88938557 64.40991211 48.72363281 C63.54301723 45.34106612 62.67205577 41.95956574 61.80078125 38.578125 C61.40080681 37.00650604 61.40080681 37.00650604 60.99275208 35.40313721 C60.7454686 34.44413513 60.49818512 33.48513306 60.2434082 32.49707031 C60.02675003 31.65025696 59.81009186 30.8034436 59.58686829 29.93096924 C59.16930496 28.01232818 59.16930496 28.01232818 58 27 C57.78924332 27.78704819 57.57848663 28.57409637 57.36134338 29.38499451 C55.37836238 36.78781855 53.39214122 44.18976178 51.40223789 51.59072781 C50.37922897 55.39602311 49.35749395 59.2016511 48.33862305 63.00805664 C47.35603611 66.67872402 46.37016476 70.34849447 45.38197136 74.01765633 C45.00479994 75.42042406 44.62883027 76.82351546 44.25406075 78.2269268 C43.73054295 80.18655127 43.20242399 82.1449448 42.67407227 84.10327148 C42.3742897 85.22023911 42.07450714 86.33720673 41.76564026 87.48802185 C41 90 41 90 40 91 C37.13530675 91.07330331 34.30106326 91.09217831 31.4375 91.0625 C29.9323756 91.05101114 28.42724841 91.03988496 26.92211914 91.02905273 C24.98067017 91.01467163 24.98067017 91.01467163 23 91 C18.13344517 74.383886 13.67005385 57.66727376 9.28417969 40.91943359 C8.30819619 37.19388075 7.32428898 33.47046591 6.33870125 29.74744415 C5.57278937 26.84888574 4.81236386 23.94890879 4.05346298 21.04850769 C3.69266173 19.67330654 3.32985344 18.29863023 2.96493912 16.92451477 C2.45927967 15.01826039 1.96211746 13.10975813 1.46533203 11.20117188 C1.18142609 10.12089722 0.89752014 9.04062256 0.60501099 7.9276123 C0 5 0 5 0 0 Z " fill="#050505" transform="translate(620,51)"/>
<path d="M0 0 C11.8490625 -0.061875 11.8490625 -0.061875 23.9375 -0.125 C26.4137085 -0.14320801 28.88991699 -0.16141602 31.44116211 -0.18017578 C33.42822046 -0.18602309 35.41528122 -0.19111808 37.40234375 -0.1953125 C38.4142981 -0.20554443 39.42625244 -0.21577637 40.46887207 -0.22631836 C51.53331651 -0.22900946 60.17527284 1.48183742 68.375 9.25 C72.33913406 15.95853457 72.77919116 23.48643733 71 31 C68.89046773 34.92809458 66.3725459 38.07712689 63 41 C62.34 41 61.68 41 61 41 C61 41.66 61 42.32 61 43 C61.74894531 43.08765625 62.49789062 43.1753125 63.26953125 43.265625 C66.52041783 44.13996932 67.55022489 45.1948756 69.6875 47.75 C70.26886719 48.42546875 70.85023438 49.1009375 71.44921875 49.796875 C75.65869111 55.77708259 76.5278135 63.10725268 75.75390625 70.28125 C74.18063106 77.52110043 70.39243777 82.44903515 64.41267395 86.58952332 C56.54518516 91.18894692 47.64486305 91.42333235 38.76953125 91.29296875 C37.28229553 91.28843689 37.28229553 91.28843689 35.76501465 91.28381348 C32.11406826 91.26829419 28.463272 91.22641249 24.8125 91.1875 C16.624375 91.125625 8.43625 91.06375 0 91 C0 60.97 0 30.94 0 0 Z M17 14 C17 21.92 17 29.84 17 38 C21.54202541 38.08100045 26.08260304 38.14050969 30.625 38.1875 C31.91019531 38.21263672 33.19539063 38.23777344 34.51953125 38.26367188 C35.76347656 38.27333984 37.00742187 38.28300781 38.2890625 38.29296875 C39.43068848 38.3086792 40.57231445 38.32438965 41.74853516 38.34057617 C46.13161759 37.8814682 49.36194028 36.27599931 52.8203125 33.58203125 C55.13767699 30.47430735 55.09658292 26.76673402 55 23 C53.75620146 19.04911053 52.84721301 17.51871598 49.31201172 15.35424805 C45.62033463 13.84475867 43.04338713 13.65429132 39.0703125 13.70703125 C37.13671875 13.7215332 37.13671875 13.7215332 35.1640625 13.73632812 C33.81770214 13.76138812 32.47134797 13.78678288 31.125 13.8125 C29.75522295 13.82756496 28.38542998 13.84125018 27.015625 13.85351562 C23.67691255 13.88878371 20.33840508 13.94258794 17 14 Z M17 50 C17 58.91 17 67.82 17 77 C21.44801928 77.06910041 25.89415558 77.12876017 30.34228516 77.16479492 C31.85341727 77.17982543 33.36450618 77.20025564 34.87548828 77.22631836 C37.05512187 77.26295689 39.23417575 77.27978338 41.4140625 77.29296875 C42.7232666 77.3086792 44.0324707 77.32438965 45.38134766 77.34057617 C50.14463454 76.8922706 53.5743515 75.57312938 56.8125 72 C59.2013427 67.97668598 59.38339172 64.60070058 59 60 C57.51431564 55.63244599 56.06084934 53.53547082 51.86914062 51.41967773 C48.04014809 49.83529033 44.6937202 49.65526489 40.53515625 49.70703125 C39.85698349 49.71127609 39.17881073 49.71552094 38.48008728 49.71989441 C36.34046598 49.73652059 34.20183053 49.77413826 32.0625 49.8125 C30.60092518 49.82756778 29.13933542 49.8412525 27.67773438 49.85351562 C24.11781578 49.88380421 20.55999488 49.94254641 17 50 Z " fill="#080808" transform="translate(323,51)"/>
<path d="M0 0 C3.63155125 3.21572477 5.63321959 7.69015603 6.20018005 12.45986938 C6.28264391 14.94606165 6.27521232 17.41519787 6.23046875 19.90234375 C6.22622391 20.80247696 6.22197906 21.70261017 6.21760559 22.63002014 C6.20091816 25.48282786 6.16328497 28.33490863 6.125 31.1875 C6.1099403 33.13084912 6.09625415 35.07420939 6.08398438 37.01757812 C6.05104726 41.76199549 5.9993344 46.50587483 5.9375 51.25 C8.2475 51.25 10.5575 51.25 12.9375 51.25 C12.9375 54.88 12.9375 58.51 12.9375 62.25 C7.97208454 64.23616619 4.21027731 64.66847439 -1.0625 64.25 C-4.36474983 62.70895008 -6.54417718 60.82604942 -9.0625 58.25 C-10.2175 58.86875 -11.3725 59.4875 -12.5625 60.125 C-21.2216197 64.40898554 -30.32630073 65.8335122 -39.75 63.125 C-45.04706677 61.13390398 -49.64634777 58.05870192 -52.234375 52.92578125 C-54.05124209 47.05524373 -53.83780846 40.61899806 -51.9375 34.8125 C-46.59350572 27.50904116 -40.55608909 25.31568749 -31.83105469 23.88378906 C-28.47416511 23.37154075 -25.11911798 22.8622593 -21.7512207 22.42724609 C-17.26677617 21.80299752 -13.6819322 21.19756155 -10.0625 18.25 C-9.39583333 15.25 -9.39583333 15.25 -10.0625 12.25 C-11.60756466 10.21332385 -12.78396156 9.38926922 -15.0625 8.25 C-17.16303716 8.10098509 -19.26937825 8.02861547 -21.375 8 C-22.50550781 7.97421875 -23.63601563 7.9484375 -24.80078125 7.921875 C-28.47668821 8.29166684 -30.24087693 8.87284499 -33.0625 11.25 C-33.7225 13.23 -34.3825 15.21 -35.0625 17.25 C-40.3425 17.25 -45.6225 17.25 -51.0625 17.25 C-50.71401631 10.74497116 -49.24802917 6.31314012 -45.0625 1.25 C-33.70660757 -7.93135984 -11.82702736 -9.33187391 0 0 Z M-21.9375 32.5625 C-22.74058594 32.68044922 -23.54367187 32.79839844 -24.37109375 32.91992188 C-28.86744972 33.64215368 -32.33649708 34.4500716 -36.0625 37.25 C-38.12644575 40.19849393 -38.59602178 42.69318816 -38.0625 46.25 C-35.8147146 49.04035429 -34.48519984 50.10910005 -31.0625 51.25 C-25.41545264 51.74707055 -20.61952184 52.04216901 -15.5 49.4375 C-14.695625 48.715625 -13.89125 47.99375 -13.0625 47.25 C-12.52109375 46.8478125 -11.9796875 46.445625 -11.421875 46.03125 C-9.33854504 43.30136937 -9.77496829 40.93023426 -9.875 37.5625 C-9.90207031 36.38300781 -9.92914062 35.20351562 -9.95703125 33.98828125 C-10.00923828 32.63283203 -10.00923828 32.63283203 -10.0625 31.25 C-14.1028529 31.25 -17.95410837 31.92604395 -21.9375 32.5625 Z " fill="#060606" transform="translate(790.0625,79.75)"/>
<path d="M0 0 C4.1443994 3.65630097 6.02428153 6.8501141 6.37011719 12.32958984 C6.41109941 14.15949417 6.43117947 15.98995091 6.43359375 17.8203125 C6.45013 18.78844879 6.46666626 19.75658508 6.48370361 20.75405884 C6.5320922 23.83089602 6.55353455 26.90723926 6.57421875 29.984375 C6.60238603 32.07684764 6.63231451 34.16929737 6.6640625 36.26171875 C6.73784897 41.37756349 6.78747963 46.4931355 6.82421875 51.609375 C8.80421875 51.609375 10.78421875 51.609375 12.82421875 51.609375 C12.82421875 55.239375 12.82421875 58.869375 12.82421875 62.609375 C6.69423806 65.06136728 2.49326243 65.57993634 -3.61328125 63.359375 C-6.17578125 61.609375 -6.17578125 61.609375 -6.8359375 59.5 C-6.94808594 58.87609375 -7.06023437 58.2521875 -7.17578125 57.609375 C-7.97242188 58.03089844 -8.7690625 58.45242187 -9.58984375 58.88671875 C-11.17925781 59.70849609 -11.17925781 59.70849609 -12.80078125 60.546875 C-13.84492188 61.09214844 -14.8890625 61.63742188 -15.96484375 62.19921875 C-24.25733049 65.84105295 -33.79619933 65.70734257 -42.203125 62.51953125 C-47.49855217 60.07629456 -50.09781861 57.01207786 -52.17578125 51.609375 C-53.69731165 44.46988619 -53.20034459 38.25358901 -49.61328125 31.796875 C-42.96237289 25.82811109 -34.42972139 24.69239538 -25.86328125 23.484375 C-23.74131309 23.17521408 -21.62016744 22.86034022 -19.5 22.5390625 C-18.57276123 22.40741699 -17.64552246 22.27577148 -16.69018555 22.14013672 C-14.16165491 21.60639309 -12.32765957 21.04032408 -10.17578125 19.609375 C-8.92166557 16.24763363 -8.92166557 16.24763363 -9.17578125 12.609375 C-11.81287767 9.85463859 -13.51657813 8.72157979 -17.296875 8.078125 C-26.11045279 8.01758819 -26.11045279 8.01758819 -33.17578125 12.609375 C-34.16578125 15.084375 -34.16578125 15.084375 -35.17578125 17.609375 C-40.12578125 17.609375 -45.07578125 17.609375 -50.17578125 17.609375 C-49.94483243 10.21901287 -48.44888685 5.8824806 -43.17578125 0.609375 C-31.21326721 -8.30387075 -12.39232474 -7.5860772 0 0 Z M-19.86328125 32.359375 C-20.76240234 32.51664063 -21.66152344 32.67390625 -22.58789062 32.8359375 C-28.02698705 33.87347607 -31.86994672 35.07566911 -36.17578125 38.609375 C-37.59619946 41.45021141 -37.49030397 43.46414778 -37.17578125 46.609375 C-35.30868215 48.91213056 -33.81930384 50.28761371 -31.17578125 51.609375 C-22.53250635 52.51818515 -22.53250635 52.51818515 -14.55078125 49.859375 C-10.27271155 45.8915103 -10.27271155 45.8915103 -8.8828125 40.375 C-8.93501953 38.63476562 -8.93501953 38.63476562 -8.98828125 36.859375 C-9.01535156 35.68890625 -9.04242188 34.5184375 -9.0703125 33.3125 C-9.10511719 32.42046875 -9.13992188 31.5284375 -9.17578125 30.609375 C-12.71320294 30.609375 -16.399576 31.70795535 -19.86328125 32.359375 Z " fill="#050505" transform="translate(503.17578125,79.390625)"/>
<path d="M0 0 C7.90603654 6.50051893 12.84917991 13.53133338 14.30859375 23.8046875 C14.59075687 26.98860226 14.83660621 30.116016 14.8125 33.3125 C13.8125 34.3125 13.8125 34.3125 11.90794373 34.43275452 C11.07521439 34.43053391 10.24248505 34.42831329 9.38452148 34.42602539 C8.44362167 34.42594986 7.50272186 34.42587433 6.53330994 34.42579651 C5.51040359 34.42063522 4.48749725 34.41547394 3.43359375 34.41015625 C2.39179459 34.4087413 1.34999542 34.40732635 0.27662659 34.40586853 C-3.06561094 34.4002508 -6.40778257 34.3876953 -9.75 34.375 C-12.00976466 34.36998728 -14.26953037 34.36542398 -16.52929688 34.36132812 C-22.08205391 34.35027561 -27.63477225 34.33352024 -33.1875 34.3125 C-32.88859541 35.76410408 -32.58324143 37.21438121 -32.27514648 38.6640625 C-32.10579086 39.47182129 -31.93643524 40.27958008 -31.76194763 41.11181641 C-31.07744575 43.73411299 -30.1077824 45.34599242 -28.25 47.3125 C-27.74597656 47.869375 -27.24195313 48.42625 -26.72265625 49 C-23.6050079 51.66547034 -20.22915901 51.50389662 -16.3125 51.5625 C-15.28382813 51.58828125 -14.25515625 51.6140625 -13.1953125 51.640625 C-9.74751291 51.26450141 -7.93200477 50.40609567 -5.1875 48.3125 C-4.713125 47.260625 -4.23875 46.20875 -3.75 45.125 C-1.1875 42.3125 -1.1875 42.3125 2.17578125 41.92578125 C5.73889543 41.93652431 9.25910468 42.05597146 12.8125 42.3125 C12.5424496 48.79370963 10.31285806 52.67091732 5.8125 57.3125 C-1.98583087 63.83029314 -9.34806575 65.77509225 -19.37890625 65.56640625 C-29.65566342 64.6373531 -37.05387363 60.28825273 -43.64453125 52.4609375 C-49.28397932 44.60854145 -49.87244692 34.67759242 -49.1875 25.3125 C-47.2505173 14.08715144 -42.46695969 5.97603582 -33.1875 -0.6875 C-22.36594217 -6.77880987 -10.69038709 -5.6596167 0 0 Z M-30.5 14.625 C-32.73939757 17.78698917 -32.73939757 17.78698917 -33.1875 24.3125 C-22.6275 24.3125 -12.0675 24.3125 -1.1875 24.3125 C-2.31140742 17.5690555 -3.80038167 14.47227373 -8.8125 9.9375 C-17.38399581 5.8104835 -23.99881424 8.12381424 -30.5 14.625 Z " fill="#050505" transform="translate(921.1875,78.6875)"/>
<path d="M0 0 C5.5620379 4.86678316 7.00892312 9.06688527 7.5 16.1875 C4.8941111 16.32244246 2.29517889 16.42152299 -0.3125 16.5 C-1.05048828 16.54189453 -1.78847656 16.58378906 -2.54882812 16.62695312 C-4.70703125 16.67578125 -4.70703125 16.67578125 -8.5 16.1875 C-10.26171875 13.79296875 -10.26171875 13.79296875 -11.5 11.1875 C-14.5873517 9.01588821 -17.28265067 8.917075 -21 8.9375 C-22.40765625 8.92976563 -22.40765625 8.92976563 -23.84375 8.921875 C-26.54047676 9.19154768 -28.18949293 9.8142741 -30.5 11.1875 C-30.5 13.1675 -30.5 15.1475 -30.5 17.1875 C-24.76672702 20.10625715 -19.30924158 21.77986375 -13.0625 23.125 C-5.05672327 24.89572638 2.30052996 26.7539224 8.0625 32.9375 C11.01649494 39.61609726 11.14294216 45.35837053 8.5078125 52.18359375 C5.49562746 58.17293841 -0.33453403 61.76690756 -6.52734375 63.87890625 C-16.21027081 66.38280963 -27.88411121 66.63461358 -36.9140625 61.9296875 C-42.75574732 58.29528424 -46.29051827 54.8159452 -48.5 48.1875 C-48.5 45.8775 -48.5 43.5675 -48.5 41.1875 C-43.55 41.1875 -38.6 41.1875 -33.5 41.1875 C-32.58854167 43.20572917 -31.67708333 45.22395833 -30.765625 47.2421875 C-29.19017315 49.66371534 -28.2399416 50.27729794 -25.5 51.1875 C-22.16369674 51.54227675 -22.16369674 51.54227675 -18.5625 51.5 C-17.35722656 51.51675781 -16.15195312 51.53351563 -14.91015625 51.55078125 C-11.25563998 51.16146852 -9.3660071 50.45686622 -6.5 48.1875 C-5.5831537 45.23124733 -5.5831537 45.23124733 -6.5 42.1875 C-11.3145529 38.15347655 -16.20199478 37.05043396 -22.25 35.75 C-40.52046058 31.47199813 -40.52046058 31.47199813 -45.0625 25.0625 C-47.6068011 19.9738978 -48.01856548 15.78608662 -47.5 10.1875 C-45.77523927 5.20485788 -42.92799731 1.98360616 -38.5 -0.8125 C-26.21644298 -6.72135677 -12.0777823 -6.25456584 0 0 Z " fill="#060606" transform="translate(990.5,78.8125)"/>
<path d="M0 0 C4.84214479 4.98887645 6.19250905 9.5612699 6.17602539 16.35253906 C6.17594986 17.39331604 6.17587433 18.43409302 6.17579651 19.50640869 C6.17063522 20.62320007 6.16547394 21.73999146 6.16015625 22.890625 C6.1587413 24.03915955 6.15732635 25.18769409 6.15586853 26.37103271 C6.15027143 30.03904831 6.13771944 33.70700285 6.125 37.375 C6.11998463 39.86197829 6.11542178 42.34895753 6.11132812 44.8359375 C6.10030295 50.93231519 6.08304027 57.02864724 6.0625 63.125 C1.1125 63.125 -3.8375 63.125 -8.9375 63.125 C-8.95208252 61.79847412 -8.96666504 60.47194824 -8.98168945 59.10522461 C-9.03984122 54.1643636 -9.11707334 49.22395028 -9.19995117 44.28344727 C-9.23312117 42.14875578 -9.26117758 40.01397827 -9.28393555 37.87915039 C-9.31762717 34.80317669 -9.36995103 31.72798574 -9.42578125 28.65234375 C-9.43217117 27.70415268 -9.4385611 26.75596161 -9.44514465 25.77903748 C-9.56853604 20.16615753 -10.18312795 16.06142287 -12.9375 11.125 C-17.19750905 8.28499396 -20.93691947 8.49408563 -25.9375 9.125 C-30.39550073 11.31347308 -32.88949316 13.59782698 -34.9375 18.125 C-36.01379329 23.16097203 -36.14969742 28.11601751 -36.25390625 33.2421875 C-36.27468735 34.09934357 -36.29546844 34.95649963 -36.31687927 35.83963013 C-36.38191261 38.55967714 -36.44104341 41.27981517 -36.5 44 C-36.54322924 45.85157166 -36.5868449 47.70313434 -36.63085938 49.5546875 C-36.73754621 54.07803331 -36.83894194 58.60147007 -36.9375 63.125 C-41.8875 63.125 -46.8375 63.125 -51.9375 63.125 C-51.9375 41.345 -51.9375 19.565 -51.9375 -2.875 C-46.9875 -2.875 -42.0375 -2.875 -36.9375 -2.875 C-36.6075 -0.895 -36.2775 1.085 -35.9375 3.125 C-35.19306641 2.51011719 -35.19306641 2.51011719 -34.43359375 1.8828125 C-23.93009508 -6.44823578 -11.44668042 -7.30639176 0 0 Z " fill="#060606" transform="translate(605.9375,78.875)"/>
<path d="M0 0 C5.28 0 10.56 0 16 0 C19.9321522 9.37226569 23.06836713 18.97984779 26.25 28.625 C26.80961474 30.31389525 27.36950834 32.00269813 27.9296875 33.69140625 C29.28967558 37.79321296 30.64588392 41.89625124 32 46 C35.96260685 36.88672082 38.77113095 27.4207442 41.6875 17.9375 C42.432862 15.51777759 43.17943737 13.09846312 43.92988586 10.68031311 C44.39370632 9.18552019 44.85457201 7.68980656 45.31217957 6.19309998 C46.88752288 1.11247712 46.88752288 1.11247712 48 0 C50.69654854 -0.07319621 53.36691458 -0.09242537 56.0625 -0.0625 C56.82111328 -0.05798828 57.57972656 -0.05347656 58.36132812 -0.04882812 C60.24091871 -0.0370068 62.12046899 -0.01907078 64 0 C61.75475448 7.85839413 59.09734707 15.53779333 56.33203125 23.2265625 C55.89235519 24.45539154 55.45267914 25.68422058 54.99967957 26.95028687 C53.84296466 30.18304267 52.68320789 33.41469863 51.52276611 36.64611816 C50.33426485 39.9574173 49.14871006 43.26977098 47.96289062 46.58203125 C45.64477378 53.05571019 43.32316221 59.52812996 41 66 C35.06 66 29.12 66 23 66 C20.29021514 58.7258711 17.58550421 51.4499028 14.88944435 44.17067814 C13.63707549 40.78995141 12.38258526 37.41004528 11.12304688 34.03198242 C9.90538365 30.76598018 8.69355468 27.49786581 7.48557663 24.22826958 C6.80380044 22.38744923 6.11615146 20.54880735 5.42837524 18.71022034 C3.14276237 12.50788096 1.24151741 6.49525574 0 0 Z " fill="#060606" transform="translate(804,76)"/>
<path d="M0 0 C0 4.95 0 9.9 0 15 C-1.670625 14.9175 -3.34125 14.835 -5.0625 14.75 C-10.71986866 14.77181505 -13.56331905 15.46876415 -18 19 C-22.84250903 25.24935416 -23.14913992 31.74034108 -23.31640625 39.36328125 C-23.33718735 40.15526413 -23.35796844 40.94724701 -23.37937927 41.76322937 C-23.44447804 44.27956928 -23.50357423 46.79600872 -23.5625 49.3125 C-23.605723 51.02409861 -23.64933848 52.73568735 -23.69335938 54.44726562 C-23.80011847 58.63140984 -23.90149635 62.81565362 -24 67 C-28.95 67 -33.9 67 -39 67 C-39 45.22 -39 23.44 -39 1 C-34.38 1 -29.76 1 -25 1 C-24.67 3.64 -24.34 6.28 -24 9 C-22.948125 7.88625 -22.948125 7.88625 -21.875 6.75 C-16.09683203 1.22305673 -8.20827511 -4.10413756 0 0 Z " fill="#070707" transform="translate(449,75)"/>
<path d="M0 0 C5.28 0 10.56 0 16 0 C16 21.78 16 43.56 16 66 C10.72 66 5.44 66 0 66 C0 44.22 0 22.44 0 0 Z " fill="#080808" transform="translate(524,76)"/>
<path d="M0 0 C2.64 0 5.28 0 8 0 C8 4.29 8 8.58 8 13 C11.96 13 15.92 13 20 13 C20 8.71 20 4.42 20 0 C22.64 0 25.28 0 28 0 C28 11.22 28 22.44 28 34 C25.36 34 22.72 34 20 34 C20 29.38 20 24.76 20 20 C16.04 20 12.08 20 8 20 C8 24.62 8 29.24 8 34 C5.36 34 2.72 34 0 34 C0 22.78 0 11.56 0 0 Z " fill="#0A0A0A" transform="translate(715,173)"/>
<path d="M0 0 C8.25 0 16.5 0 25 0 C25 2.31 25 4.62 25 7 C19.39 7 13.78 7 8 7 C8 8.98 8 10.96 8 13 C12.95 13 17.9 13 23 13 C23 15.31 23 17.62 23 20 C18.05 20 13.1 20 8 20 C8 22.31 8 24.62 8 27 C13.61 27 19.22 27 25 27 C25 29.31 25 31.62 25 34 C16.75 34 8.5 34 0 34 C0 22.78 0 11.56 0 0 Z " fill="#090909" transform="translate(625,173)"/>
<path d="M0 0 C1.03769531 -0.02578125 2.07539062 -0.0515625 3.14453125 -0.078125 C7.25735704 0.36536328 9.69742153 2.13244115 12.9375 4.5625 C14.72332522 6.97336404 14.86141585 9.31524268 15.1875 12.25 C9.88190832 12.60370611 9.88190832 12.60370611 7.1875 12.25 C5.81439293 10.95766393 4.47715176 9.62562854 3.1875 8.25 C0.14496492 7.66654524 0.14496492 7.66654524 -2.8125 8.25 C-4.85555137 9.82270861 -5.69431992 10.85058124 -6.4296875 13.3359375 C-6.87221411 17.2650374 -7.11932593 19.5805616 -5.4375 23.25 C-3.9675633 25.12923641 -3.9675633 25.12923641 -2.8125 26.25 C-0.47952567 26.29092937 1.85455225 26.29241723 4.1875 26.25 C5.1775 24.27 6.1675 22.29 7.1875 20.25 C9.8275 20.25 12.4675 20.25 15.1875 20.25 C14.81876118 26.39564694 13.41496623 29.02253377 9.1875 33.25 C3.11986578 35.27254474 -3.59556016 35.3001294 -9.375 32.5625 C-14.2252051 27.96102337 -15.63568499 23.94642888 -16.0625 17.4375 C-15.96681272 11.71752687 -14.05118878 7.63974839 -10.25 3.375 C-6.65328076 0.23939861 -4.71076647 0.06970308 0 0 Z " fill="#0A0A0A" transform="translate(681.8125,172.75)"/>
<path d="M0 0 C8.91 0 17.82 0 27 0 C27 2.31 27 4.62 27 7 C24.03 7 21.06 7 18 7 C18 15.91 18 24.82 18 34 C15.36 34 12.72 34 10 34 C10 25.09 10 16.18 10 7 C6.7 7 3.4 7 0 7 C0 4.69 0 2.38 0 0 Z " fill="#070707" transform="translate(581,173)"/>
<path d="M0 0 C5.28 0 10.56 0 16 0 C16 4.95 16 9.9 16 15 C10.72 15 5.44 15 0 15 C0 10.05 0 5.1 0 0 Z " fill="#0D0D0D" transform="translate(524,51)"/>
<path d="M0 0 C-1.299375 0.8353125 -1.299375 0.8353125 -2.625 1.6875 C-5.95945073 3.90252798 -8.96205756 6.39604933 -12 9 C-10.80786603 4.36392345 -8.47097229 2.50173811 -4.75390625 -0.1796875 C-3 -1 -3 -1 0 0 Z " fill="#1D1D1D" transform="translate(754,78)"/>
<path d="M0 0 C0.66 0.33 1.32 0.66 2 1 C-0.97 3.97 -3.94 6.94 -7 10 C-7 6.04435836 -5.59478606 4.89133304 -3 2 C-2.01 1.34 -1.02 0.68 0 0 Z " fill="#171717" transform="translate(463,78)"/>
<path d="M0 0 C0.66 0.33 1.32 0.66 2 1 C-0.31 3.31 -2.62 5.62 -5 8 C-5 5 -5 5 -2.5 2.3125 C-1.675 1.549375 -0.85 0.78625 0 0 Z " fill="#1B1B1B" transform="translate(674,174)"/>
</svg>
