<svg width="176" height="35" viewBox="0 0 176 35" fill="none" xmlns="http://www.w3.org/2000/svg">
<path d="M0.728655 19.306C2.19019 15.4553 7.67097 12.487 10.2287 11.4842C21.921 6.67088 40.7383 4.26396 48.594 5.46742C56.4498 6.67088 47.8633 9.0774 40.3729 11.4841C32.8825 13.8908 38.3633 15.0942 45.1229 13.8908C51.8825 12.6874 65.9498 11.4841 78.0075 10.8824C90.0652 10.2807 77.8248 9.0774 65.9498 9.0774C54.0748 9.0774 54.2575 6.67078 58.4594 5.46742C62.6614 4.26405 72.1614 -0.549386 83.3056 0.0522945C94.4498 0.653975 120.758 1.85733 132.084 6.0691C143.411 10.2808 166.796 21.7128 172.46 25.3228C178.123 28.9329 177.392 39.1615 167.344 33.1447C157.296 27.1279 136.469 16.2976 90.796 14.4926C45.1229 12.6875 10.4113 22.9161 6.75748 27.1279C3.10363 31.3396 0.545936 31.3396 2.00748 27.7296C3.46902 24.1195 3.83443 23.5178 2.37289 24.7212C0.911348 25.9245 -1.09827 24.1195 0.728655 19.306Z" fill="#8976FD"/>
</svg>
